<svg width="2134" height="335" viewBox="0 0 2134 335" fill="none" xmlns="http://www.w3.org/2000/svg">
<path d="M0 17.8242H81.3516L167.273 227.449H170.93L256.852 17.8242H338.203V329.824H274.219V126.75H271.629L190.887 328.301H147.316L66.5742 125.988H63.9844V329.824H0V17.8242Z" fill="#222222"/>
<path d="M472.234 334.395C448.163 334.395 427.445 329.52 410.077 319.77C392.812 309.918 379.507 296.004 370.163 278.027C360.82 259.949 356.148 238.57 356.148 213.891C356.148 189.82 360.82 168.695 370.163 150.516C379.507 132.336 392.659 118.168 409.62 108.012C426.683 97.8555 446.691 92.7774 469.644 92.7774C485.081 92.7774 499.452 95.2656 512.757 100.242C526.163 105.117 537.843 112.48 547.796 122.332C557.851 132.184 565.671 144.574 571.257 159.504C576.843 174.332 579.636 191.699 579.636 211.605V229.43H382.046V189.211H518.546C518.546 179.867 516.515 171.59 512.452 164.379C508.39 157.168 502.753 151.531 495.542 147.469C488.433 143.305 480.156 141.223 470.71 141.223C460.859 141.223 452.124 143.508 444.507 148.078C436.991 152.547 431.101 158.59 426.835 166.207C422.57 173.723 420.386 182.102 420.284 191.344V229.582C420.284 241.16 422.417 251.164 426.683 259.594C431.05 268.023 437.195 274.523 445.116 279.094C453.038 283.664 462.433 285.949 473.3 285.949C480.511 285.949 487.113 284.934 493.105 282.902C499.097 280.871 504.226 277.824 508.491 273.762C512.757 269.699 516.007 264.723 518.241 258.832L578.265 262.793C575.218 277.215 568.972 289.809 559.527 300.574C550.183 311.238 538.097 319.566 523.269 325.559C508.542 331.449 491.531 334.395 472.234 334.395Z" fill="#222222"/>
<path d="M682.474 333.633C664.701 333.633 648.603 329.063 634.181 319.922C619.861 310.68 608.486 297.121 600.056 279.246C591.728 261.27 587.564 239.23 587.564 213.129C587.564 186.316 591.88 164.023 600.513 146.25C609.146 128.375 620.623 115.02 634.943 106.184C649.365 97.2461 665.158 92.7774 682.322 92.7774C695.423 92.7774 706.341 95.0117 715.076 99.4805C723.912 103.848 731.021 109.332 736.404 115.934C741.888 122.434 746.052 128.832 748.896 135.129H750.876V17.8242H815.623V329.824H751.638V292.348H748.896C745.849 298.848 741.533 305.297 735.947 311.695C730.462 317.992 723.302 323.223 714.466 327.387C705.732 331.551 695.068 333.633 682.474 333.633ZM703.041 281.988C713.501 281.988 722.337 279.145 729.548 273.457C736.861 267.668 742.447 259.594 746.306 249.234C750.267 238.875 752.248 226.738 752.248 212.824C752.248 198.91 750.318 186.824 746.458 176.566C742.599 166.309 737.013 158.387 729.701 152.801C722.388 147.215 713.501 144.422 703.041 144.422C692.376 144.422 683.388 147.316 676.076 153.105C668.763 158.895 663.228 166.918 659.47 177.176C655.712 187.434 653.833 199.316 653.833 212.824C653.833 226.434 655.712 238.469 659.47 248.93C663.33 259.289 668.865 267.414 676.076 273.305C683.388 279.094 692.376 281.988 703.041 281.988Z" fill="#222222"/>
<path d="M843.241 329.824V95.8242H908.139V329.824H843.241ZM875.843 65.6602C866.194 65.6602 857.917 62.4609 851.01 56.0625C844.206 49.5625 840.803 41.793 840.803 32.7539C840.803 23.8164 844.206 16.1484 851.01 9.75002C857.917 3.25001 866.194 0 875.843 0C885.491 0 893.718 3.25001 900.522 9.75002C907.428 16.1484 910.882 23.8164 910.882 32.7539C910.882 41.793 907.428 49.5625 900.522 56.0625C893.718 62.4609 885.491 65.6602 875.843 65.6602Z" fill="#EF4444"/>
<path d="M1058.85 95.8242V144.574H917.934V95.8242H1058.85ZM949.926 39.7617H1014.82V257.918C1014.82 263.91 1015.74 268.582 1017.57 271.934C1019.39 275.184 1021.93 277.469 1025.18 278.789C1028.54 280.109 1032.39 280.77 1036.76 280.77C1039.81 280.77 1042.86 280.516 1045.9 280.008C1048.95 279.398 1051.29 278.941 1052.91 278.637L1063.12 326.93C1059.87 327.945 1055.3 329.113 1049.41 330.434C1043.52 331.855 1036.36 332.719 1027.93 333.023C1012.29 333.633 998.574 331.551 986.793 326.777C975.113 322.004 966.023 314.59 959.523 304.535C953.023 294.48 949.824 281.785 949.926 266.449V39.7617Z" fill="#222222"/>
<path d="M1142.11 334.242C1127.18 334.242 1113.88 331.652 1102.2 326.473C1090.52 321.191 1081.28 313.422 1074.47 303.164C1067.77 292.805 1064.42 279.906 1064.42 264.469C1064.42 251.469 1066.8 240.551 1071.58 231.715C1076.35 222.879 1082.85 215.77 1091.08 210.387C1099.3 205.004 1108.65 200.941 1119.11 198.199C1129.67 195.457 1140.74 193.527 1152.32 192.41C1165.93 190.988 1176.9 189.668 1185.23 188.449C1193.55 187.129 1199.6 185.199 1203.36 182.66C1207.11 180.121 1208.99 176.363 1208.99 171.387V170.473C1208.99 160.824 1205.95 153.359 1199.85 148.078C1193.86 142.797 1185.33 140.156 1174.26 140.156C1162.58 140.156 1153.29 142.746 1146.38 147.926C1139.47 153.004 1134.9 159.402 1132.67 167.121L1072.64 162.246C1075.69 148.027 1081.68 135.738 1090.62 125.379C1099.56 114.918 1111.09 106.895 1125.2 101.309C1139.42 95.6211 1155.88 92.7774 1174.56 92.7774C1187.56 92.7774 1200 94.3008 1211.89 97.3477C1223.87 100.395 1234.48 105.117 1243.73 111.516C1253.07 117.914 1260.43 126.141 1265.82 136.195C1271.2 146.148 1273.89 158.082 1273.89 171.996V329.824H1212.34V297.375H1210.52C1206.76 304.688 1201.73 311.137 1195.43 316.723C1189.14 322.207 1181.57 326.523 1172.73 329.672C1163.9 332.719 1153.69 334.242 1142.11 334.242ZM1160.7 289.453C1170.25 289.453 1178.68 287.574 1185.99 283.816C1193.3 279.957 1199.04 274.777 1203.2 268.277C1207.37 261.777 1209.45 254.414 1209.45 246.188V221.355C1207.42 222.676 1204.63 223.895 1201.07 225.012C1197.62 226.027 1193.71 226.992 1189.34 227.906C1184.97 228.719 1180.61 229.48 1176.24 230.191C1171.87 230.801 1167.91 231.359 1164.36 231.867C1156.74 232.984 1150.09 234.762 1144.4 237.199C1138.71 239.637 1134.29 242.938 1131.14 247.102C1128 251.164 1126.42 256.242 1126.42 262.336C1126.42 271.172 1129.62 277.926 1136.02 282.598C1142.52 287.168 1150.75 289.453 1160.7 289.453Z" fill="#222222"/>
<path d="M1422.97 95.8242V144.574H1282.05V95.8242H1422.97ZM1314.04 39.7617H1378.94V257.918C1378.94 263.91 1379.85 268.582 1381.68 271.934C1383.51 275.184 1386.05 277.469 1389.3 278.789C1392.65 280.109 1396.51 280.77 1400.88 280.77C1403.92 280.77 1406.97 280.516 1410.02 280.008C1413.06 279.398 1415.4 278.941 1417.02 278.637L1427.23 326.93C1423.98 327.945 1419.41 329.113 1413.52 330.434C1407.63 331.855 1400.47 332.719 1392.04 333.023C1376.4 333.633 1362.69 331.551 1350.91 326.777C1339.23 322.004 1330.14 314.59 1323.64 304.535C1317.14 294.48 1313.94 281.785 1314.04 266.449V39.7617Z" fill="#222222"/>
<path d="M1543.63 334.395C1519.56 334.395 1498.84 329.52 1481.47 319.77C1464.21 309.918 1450.9 296.004 1441.56 278.027C1432.21 259.949 1427.54 238.57 1427.54 213.891C1427.54 189.82 1432.21 168.695 1441.56 150.516C1450.9 132.336 1464.05 118.168 1481.01 108.012C1498.08 97.8555 1518.08 92.7774 1541.04 92.7774C1556.48 92.7774 1570.85 95.2656 1584.15 100.242C1597.56 105.117 1609.24 112.48 1619.19 122.332C1629.24 132.184 1637.07 144.574 1642.65 159.504C1648.24 174.332 1651.03 191.699 1651.03 211.605V229.43H1453.44V189.211H1589.94C1589.94 179.867 1587.91 171.59 1583.85 164.379C1579.78 157.168 1574.15 151.531 1566.94 147.469C1559.83 143.305 1551.55 141.223 1542.1 141.223C1532.25 141.223 1523.52 143.508 1515.9 148.078C1508.39 152.547 1502.49 158.59 1498.23 166.207C1493.96 173.723 1491.78 182.102 1491.68 191.344V229.582C1491.68 241.16 1493.81 251.164 1498.08 259.594C1502.44 268.023 1508.59 274.523 1516.51 279.094C1524.43 283.664 1533.83 285.949 1544.69 285.949C1551.9 285.949 1558.51 284.934 1564.5 282.902C1570.49 280.871 1575.62 277.824 1579.89 273.762C1584.15 269.699 1587.4 264.723 1589.64 258.832L1649.66 262.793C1646.61 277.215 1640.37 289.809 1630.92 300.574C1621.58 311.238 1609.49 319.566 1594.66 325.559C1579.94 331.449 1562.92 334.395 1543.63 334.395Z" fill="#222222"/>
<path d="M1858.96 331.746H1818.59L1794.3 236.32L1853.69 205.29L1873.02 260.525L1887.41 187.664L1966.34 146.418L1961.98 168.332L2007.56 168.759C2025.16 168.489 2038.79 162.539 2048.49 150.954C2058.19 139.345 2062.79 123.785 2062.3 104.184C2062.22 101.661 2061.96 99.1467 2061.51 96.6619L2122.81 64.6213C2131.3 80.2262 2134.53 98.6153 2132.56 119.744C2129.28 150.549 2115.94 175.203 2092.61 193.682C2069.28 212.183 2039.53 221.434 2003.41 221.434L1951.63 221.209L1929.69 331.746H1858.96ZM1868.42 84.9863H1907.71L1847.15 170.869L1697.62 249.029L1753.03 170.667L1699.77 17.4023H1777.91L1805.53 124.93L1829.15 84.9638H1868.44H1829.15L1871.31 17.4023H1921.05L2036.14 17.6269C2062.3 18.3454 2083.74 25.2834 2100.49 38.4409L2037.62 71.3123C2036.08 71.0258 2034.52 70.8308 2032.95 70.7285L1981.45 70.2794L1974.71 104.184L1895.74 145.453L1907.69 84.9638L1868.42 84.9863ZM1656.8 308.215L1776.4 245.683L1723.68 331.746H1639.15L1656.37 307.384L1656.8 308.215Z" fill="#222222"/>
</svg>
